<svg width="312" height="120" viewBox="0 0 312 120" fill="none" xmlns="http://www.w3.org/2000/svg">
<path d="M0 116.794V59.2534H18.5774C22.9615 59.2534 26.9619 59.9384 30.5788 61.3084C34.1956 62.6785 37.3193 64.6239 39.9497 67.1447C42.5802 69.6656 44.6078 72.707 46.0326 76.269C47.4574 79.7763 48.1698 83.6945 48.1698 88.0238C48.1698 92.353 47.4574 96.2987 46.0326 99.8608C44.6078 103.368 42.5802 106.382 39.9497 108.903C37.3193 111.424 34.1956 113.369 30.5788 114.739C26.9619 116.109 22.9615 116.794 18.5774 116.794H0ZM9.94633 107.67H18.3308C21.1805 107.67 23.8109 107.259 26.2221 106.437C28.6334 105.615 30.7432 104.382 32.5516 102.738C34.3601 101.094 35.7575 99.0387 36.7439 96.5727C37.7303 94.1067 38.2235 91.257 38.2235 88.0238C38.2235 84.7905 37.7303 81.9409 36.7439 79.4749C35.7575 77.0089 34.3601 74.9538 32.5516 73.3098C30.7432 71.6658 28.6334 70.4328 26.2221 69.6107C23.8109 68.7887 21.1805 68.3777 18.3308 68.3777H9.94633V107.67Z" fill="#2B0A46"/>
<path d="M57.623 116.794V59.2534H92.6407V67.8023H67.1584V81.7765H90.9967V90.161H67.1584V108.245H92.6407V116.794H57.623Z" fill="#2B0A46"/>
<path d="M143.441 59.2534H154.62L126.507 120L98.3945 59.2534H109.574L126.507 99.6963L143.441 59.2534Z" fill="#2B0A46"/>
<path d="M225.97 116.794V59.2534H243.315C247.534 59.2534 251.179 59.9932 254.247 61.4728C257.316 62.8977 259.7 64.9527 261.399 67.6379C263.098 70.3232 263.947 73.5016 263.947 77.1733C263.947 80.8449 263.098 84.0234 261.399 86.7086C259.7 89.339 257.316 91.394 254.247 92.8737C251.179 94.2985 247.534 95.0109 243.315 95.0109H235.67V116.794H225.97ZM235.67 86.462H243.315C245.561 86.462 247.507 86.1332 249.151 85.4756C250.795 84.7632 252.083 83.7219 253.014 82.3519C253.946 80.9271 254.412 79.2009 254.412 77.1733C254.412 75.0908 253.946 73.3646 253.014 71.9946C252.083 70.6246 250.795 69.5833 249.151 68.8709C247.507 68.1585 245.561 67.8023 243.315 67.8023H235.67V86.462Z" fill="#2B0A46"/>
<path d="M277.263 98.2167C278.524 100.409 279.867 102.354 281.291 104.053C282.771 105.697 284.388 106.985 286.141 107.916C287.95 108.848 289.922 109.314 292.06 109.314C293.868 109.314 295.43 109.012 296.745 108.41C298.06 107.752 299.074 106.848 299.787 105.697C300.554 104.546 300.937 103.204 300.937 101.669C300.937 99.5319 300.417 97.8331 299.376 96.5727C298.334 95.2574 296.882 94.1614 295.019 93.2846C293.21 92.353 291.101 91.4488 288.689 90.572C287.265 90.0788 285.675 89.4212 283.922 88.5992C282.168 87.7772 280.497 86.7359 278.908 85.4755C277.318 84.1603 276.003 82.5437 274.962 80.6257C273.921 78.7076 273.4 76.406 273.4 73.7208C273.4 70.6519 274.195 67.9667 275.784 65.6651C277.373 63.3086 279.51 61.5002 282.196 60.2398C284.936 58.9246 288.032 58.267 291.484 58.267C294.882 58.267 297.841 58.8698 300.362 60.0754C302.883 61.281 304.993 62.8154 306.691 64.6787C308.445 66.5419 309.815 68.4873 310.802 70.5149L302.91 74.9538C302.143 73.529 301.211 72.2138 300.115 71.0081C299.074 69.8025 297.841 68.8161 296.416 68.0489C294.992 67.2817 293.293 66.8981 291.32 66.8981C289.566 66.8981 288.087 67.1995 286.881 67.8023C285.73 68.3503 284.881 69.0901 284.333 70.0217C283.785 70.9533 283.511 71.9671 283.511 73.0632C283.511 74.214 283.757 75.2552 284.251 76.1868C284.744 77.1184 285.511 77.9952 286.552 78.8172C287.593 79.6392 288.936 80.4339 290.58 81.2011C292.279 81.9683 294.279 82.7629 296.581 83.5849C298.334 84.1877 300.061 84.9549 301.759 85.8865C303.458 86.8181 305.02 87.969 306.445 89.339C307.924 90.709 309.075 92.353 309.897 94.271C310.774 96.1343 311.213 98.3263 311.213 100.847C311.213 103.532 310.664 105.944 309.568 108.081C308.527 110.163 307.102 111.944 305.294 113.424C303.486 114.904 301.431 116.027 299.129 116.794C296.882 117.616 294.526 118.027 292.06 118.027C288.717 118.027 285.593 117.37 282.689 116.054C279.839 114.684 277.318 112.903 275.126 110.711C272.989 108.464 271.29 105.998 270.03 103.313L277.263 98.2167Z" fill="#2B0A46"/>
<circle r="1.01404" transform="matrix(-0.999997 0.00232661 0.00232661 0.999997 216.792 65.6346)" fill="#E8AC00"/>
<path d="M217.814 68.9812C217.814 68.876 217.437 66.5024 217.13 65.407C216.804 64.6712 216.487 65.1893 216.454 65.4086C216.254 66.5928 215.786 68.8807 215.786 68.9859C215.786 69.1174 217.814 69.1127 217.814 68.9812Z" fill="#E8AC00"/>
<path fill-rule="evenodd" clip-rule="evenodd" d="M189.086 43.5929C187.742 43.4285 186.925 45.0296 187.846 46.0213L199.53 58.6043C200.244 59.3739 201.257 59.7961 202.307 59.7619L219.349 59.2063C220.701 59.1622 221.263 57.4567 220.203 56.6175L207.228 46.3488C206.705 45.9351 206.079 45.6734 205.417 45.5924L189.086 43.5929ZM204.937 50.9663C204.42 50.7521 204.139 50.2429 204.31 49.8289C204.482 49.4149 205.04 49.253 205.558 49.4672C206.075 49.6814 206.356 50.1906 206.184 50.6046C206.013 51.0185 205.455 51.1805 204.937 50.9663Z" fill="#2B0A46"/>
<path d="M206.387 51.0893C206.754 51.2413 215.776 57.5424 216.683 59.3567C216.794 60.2292 217.227 64.0739 217.227 65.3439L216.32 65.3439C216.32 65.3439 216.139 60.8082 215.595 59.5381C215.05 58.2681 206.334 51.9315 206.107 51.7653C205.282 51.1597 206.387 51.0893 206.387 51.0893Z" fill="#E8AC00"/>
<path fill-rule="evenodd" clip-rule="evenodd" d="M189.714 49.3778C189.46 49.9943 189.077 50.9787 188.63 52.1292C187.981 53.7963 187.197 55.812 186.473 57.5609C195.456 64.9584 198.54 66.5914 210.333 68.0428L214.154 60.4015L202.02 60.7971C200.971 60.8314 199.958 60.4091 199.243 59.6395L189.714 49.3778Z" fill="#2B0A46"/>
<path fill-rule="evenodd" clip-rule="evenodd" d="M185.053 58C194.747 65.9789 198.198 67.8734 210.909 69.4448C212.38 71.3737 213.59 73.5174 214.541 75.8759C216.02 79.4927 216.76 83.4384 216.76 87.7128C216.76 91.9873 216.02 95.9603 214.541 99.632C213.061 103.249 210.979 106.427 208.293 109.167C205.608 111.853 202.43 113.962 198.758 115.497C195.141 116.976 191.168 117.716 186.839 117.716C182.51 117.716 178.537 116.976 174.92 115.497C171.303 113.962 168.152 111.853 165.467 109.167C162.781 106.427 160.699 103.249 159.219 99.632C157.74 95.9603 157 91.9873 157 87.7128C157 83.4384 157.74 79.4927 159.219 75.8759C160.699 72.2042 162.781 69.0532 165.467 66.4227C168.207 63.7375 171.385 61.6551 175.002 60.1755C178.11 58.9041 181.46 58.179 185.053 58ZM168.673 95.9329C167.741 93.4121 167.275 90.6721 167.275 87.7128C167.275 84.7536 167.741 82.0409 168.673 79.5749C169.659 77.0541 171.029 74.8895 172.783 73.081C174.536 71.2178 176.591 69.793 178.948 68.8066C181.359 67.7653 184.017 67.2447 186.921 67.2447C189.771 67.2447 192.374 67.7653 194.73 68.8066C197.142 69.793 199.224 71.2178 200.978 73.081C202.731 74.8895 204.074 77.0541 205.005 79.5749C205.937 82.0409 206.403 84.7536 206.403 87.7128C206.403 90.6721 205.91 93.4121 204.923 95.9329C203.992 98.399 202.649 100.564 200.895 102.427C199.142 104.235 197.059 105.66 194.648 106.701C192.292 107.688 189.689 108.181 186.839 108.181C183.989 108.181 181.359 107.688 178.948 106.701C176.591 105.66 174.536 104.235 172.783 102.427C171.029 100.564 169.659 98.399 168.673 95.9329Z" fill="#2B0A46"/>
<path d="M0 14.5172V13.3051H3.43604V26.7247L4.99181 26.992V28.1946H0V26.992L1.55576 26.7247V14.7845L0 14.5172Z" fill="#2B0A46"/>
<path d="M11.1288 28.3951C9.69076 28.3951 8.54541 27.9178 7.69277 26.9634C6.84648 26.0026 6.42334 24.7586 6.42334 23.2314V22.8115C6.42334 21.3416 6.85921 20.1199 7.73094 19.1464C8.60905 18.1665 9.64622 17.6765 10.8425 17.6765C12.2296 17.6765 13.2795 18.0965 13.9922 18.9364C14.7112 19.7763 15.0707 20.8962 15.0707 22.2961V23.4701H8.37043L8.3418 23.5178C8.36089 24.5104 8.61223 25.328 9.09582 25.9707C9.57941 26.607 10.2571 26.9252 11.1288 26.9252C11.7651 26.9252 12.3219 26.8361 12.7991 26.6579C13.2827 26.4734 13.6995 26.222 14.0494 25.9039L14.7844 27.1256C14.4153 27.4819 13.9254 27.7842 13.3145 28.0323C12.71 28.2741 11.9815 28.395 11.1288 28.395V28.3951ZM10.8425 19.1559C10.2125 19.1559 9.67486 19.4232 9.22944 19.9577C8.78403 20.4858 8.51042 21.1507 8.40861 21.9525L8.42767 22.0002H13.1904V21.752C13.1904 21.0139 12.9932 20.3967 12.5986 19.9004C12.2041 19.404 11.6187 19.1559 10.8424 19.1559L10.8425 19.1559Z" fill="#2B0A46"/>
<path d="M24.8255 21.1126H23.413L23.1075 19.8718C22.8785 19.6554 22.5889 19.4836 22.239 19.3564C21.8954 19.2227 21.504 19.1559 21.065 19.1559C20.3969 19.1559 19.9006 19.3023 19.576 19.595C19.2515 19.8877 19.0893 20.2408 19.0893 20.6544C19.0893 21.0617 19.2324 21.383 19.5188 21.6184C19.8051 21.8539 20.3873 22.0638 21.2654 22.2484C22.5698 22.5283 23.5402 22.9101 24.1765 23.3937C24.8128 23.8709 25.131 24.5136 25.131 25.3217C25.131 26.238 24.7587 26.9793 24.0143 27.5456C23.2761 28.1119 22.309 28.3951 21.1127 28.3951C20.3301 28.3951 19.6269 28.306 19.0034 28.1278C18.3798 27.9433 17.823 27.6792 17.3331 27.3356L17.3233 24.9781H18.7359L19.089 26.3621C19.3054 26.5593 19.5981 26.7025 19.9671 26.7916C20.3426 26.8807 20.7243 26.9252 21.1125 26.9252C21.7806 26.9252 22.3024 26.7916 22.6778 26.5243C23.0596 26.2507 23.2505 25.8944 23.2505 25.4553C23.2505 25.0417 23.0914 24.7013 22.7732 24.4341C22.4615 24.1668 21.8665 23.9346 20.9884 23.7373C19.7349 23.4637 18.79 23.0915 18.1537 22.6206C17.5174 22.1497 17.1992 21.5134 17.1992 20.7117C17.1992 19.8718 17.5555 19.1559 18.2682 18.5642C18.9872 17.9724 19.9194 17.6765 21.0648 17.6765C21.8474 17.6765 22.5505 17.7783 23.1741 17.9819C23.7977 18.1856 24.3163 18.4687 24.7299 18.8314L24.8255 21.1126Z" fill="#2B0A46"/>
<path d="M59.5965 9.77363H55.4542L54.8815 6.07034C54.3343 5.52312 53.6407 5.09043 52.8008 4.77228C51.9736 4.45413 50.9937 4.29505 49.8611 4.29505C47.4431 4.29505 45.5787 5.17315 44.2679 6.92935C42.9699 8.68556 42.3208 10.9763 42.3208 13.8014V14.775C42.3208 17.6002 42.9699 19.8972 44.2679 21.6662C45.566 23.4351 47.3986 24.3195 49.7656 24.3195C50.8601 24.3195 51.859 24.1605 52.7626 23.8423C53.6789 23.5242 54.3852 23.0915 54.8815 22.5443L55.4542 18.841H59.5965V24.3386C58.4766 25.6367 57.0449 26.6739 55.3015 27.4502C53.5707 28.2137 51.63 28.5955 49.4793 28.5955C45.7505 28.5955 42.6963 27.3038 40.3165 24.7204C37.9367 22.137 36.7468 18.8219 36.7468 14.775V13.8396C36.7468 9.80544 37.9304 6.4903 40.2974 3.89418C42.6645 1.29806 45.7251 0 49.4793 0C51.63 0 53.5707 0.394507 55.3015 1.18353C57.0322 1.95981 58.4639 2.99063 59.5965 4.27596V9.77363Z" fill="#2B0A46"/>
<path d="M62.2878 17.6766C62.2878 14.5968 63.1469 12.0771 64.8649 10.1173C66.5956 8.14472 68.9818 7.15845 72.0233 7.15845C75.0776 7.15845 77.4637 8.13836 79.1817 10.0982C80.9125 12.058 81.7778 14.5841 81.7778 17.6766V18.0774C81.7778 21.1826 80.9125 23.7151 79.1817 25.6749C77.4637 27.622 75.0903 28.5955 72.0615 28.5955C68.9945 28.5955 66.5956 27.622 64.8649 25.6749C63.1469 23.7151 62.2878 21.1826 62.2878 18.0774V17.6766ZM67.8619 18.0774C67.8619 19.9609 68.1927 21.4753 68.8545 22.6206C69.5163 23.7533 70.5853 24.3196 72.0615 24.3196C73.4995 24.3196 74.5494 23.7469 75.2112 22.6015C75.8857 21.4562 76.2229 19.9482 76.2229 18.0774V17.6766C76.2229 15.844 75.8857 14.3487 75.2112 13.1906C74.5367 12.0325 73.4741 11.4535 72.0233 11.4535C70.5725 11.4535 69.5163 12.0325 68.8545 13.1906C68.1927 14.3487 67.8619 15.844 67.8619 17.6766V18.0774Z" fill="#2B0A46"/>
<path d="M83.5527 10.8999V7.54023H91.7038L91.9329 10.27C92.5946 9.27734 93.4218 8.51378 94.4144 7.97928C95.4198 7.43206 96.5779 7.15845 97.8887 7.15845C99.2122 7.15845 100.345 7.45115 101.287 8.03655C102.228 8.62194 102.941 9.50641 103.425 10.6899C104.061 9.58276 104.888 8.71739 105.906 8.09381C106.924 7.47024 108.12 7.15845 109.495 7.15845C111.531 7.15845 113.135 7.86474 114.305 9.27734C115.489 10.6772 116.081 12.8152 116.081 15.6913V24.2814L118.772 24.8541V28.1947H108.101V24.8541L110.507 24.2814V15.6722C110.507 14.1069 110.252 13.0188 109.743 12.408C109.234 11.7971 108.477 11.4917 107.471 11.4917C106.682 11.4917 105.995 11.6698 105.41 12.0262C104.837 12.3698 104.379 12.8534 104.035 13.4769C104.035 13.7187 104.042 13.9287 104.054 14.1069C104.067 14.2723 104.073 14.4441 104.073 14.6223V24.2814L106.326 24.8541V28.1947H96.266V24.8541L98.5185 24.2814V15.6722C98.5185 14.1451 98.264 13.0697 97.755 12.4461C97.2459 11.8098 96.4824 11.4917 95.4643 11.4917C94.7135 11.4917 94.0517 11.638 93.479 11.9307C92.9191 12.2107 92.4546 12.6116 92.0855 13.1333V24.2814L94.4907 24.8541V28.1947H83.839V24.8541L86.5306 24.2814V11.4726L83.5527 10.8999Z" fill="#2B0A46"/>
<path d="M120.147 10.8999V7.54023H128.241L128.508 9.94546C129.119 9.05463 129.851 8.36742 130.703 7.88383C131.556 7.40024 132.549 7.15845 133.681 7.15845C136.239 7.15845 138.224 8.15744 139.637 10.1554C141.05 12.1534 141.756 14.7814 141.756 18.0392V18.4401C141.756 21.4944 141.05 23.9505 139.637 25.8085C138.224 27.6665 136.252 28.5955 133.719 28.5955C132.638 28.5955 131.677 28.3983 130.837 28.0038C129.997 27.5965 129.278 27.0048 128.68 26.2285V32.2034L131.371 32.776V36.1357H120.433V32.776L123.125 32.2034V11.4726L120.147 10.8999ZM136.182 18.0392C136.182 16.0922 135.857 14.5141 135.208 13.3051C134.559 12.0962 133.567 11.4917 132.23 11.4917C131.39 11.4917 130.671 11.6635 130.073 12.0071C129.488 12.3507 129.023 12.8406 128.68 13.4769V22.5252C129.023 23.1106 129.488 23.556 130.073 23.8614C130.671 24.1669 131.403 24.3196 132.269 24.3196C133.618 24.3196 134.604 23.7914 135.227 22.7352C135.864 21.6789 136.182 20.2472 136.182 18.4401V18.0392Z" fill="#2B0A46"/>
<path d="M157.39 28.1947C157.237 27.8511 157.103 27.5011 156.989 27.1448C156.874 26.7757 156.785 26.4066 156.722 26.0376C156.06 26.8012 155.252 27.4184 154.297 27.8892C153.356 28.3601 152.274 28.5955 151.052 28.5955C149.029 28.5955 147.419 28.0483 146.223 26.9539C145.039 25.8467 144.447 24.345 144.447 22.4488C144.447 20.5145 145.224 19.0192 146.776 17.9629C148.329 16.9066 150.607 16.3785 153.61 16.3785H156.454V14.355C156.454 13.3624 156.168 12.5925 155.595 12.0453C155.023 11.498 154.176 11.2244 153.056 11.2244C152.42 11.2244 151.854 11.3008 151.358 11.4535C150.861 11.5935 150.46 11.7653 150.155 11.9689L149.792 14.1832H145.593L145.612 9.60185C146.63 8.91464 147.794 8.33561 149.105 7.86474C150.428 7.39388 151.867 7.15845 153.419 7.15845C155.977 7.15845 158.051 7.78839 159.642 9.04827C161.246 10.2954 162.047 12.0771 162.047 14.3932V22.9261C162.047 23.2442 162.047 23.5433 162.047 23.8233C162.06 24.1032 162.086 24.3705 162.124 24.625L163.823 24.8541V28.1947H157.39ZM152.56 24.4723C153.4 24.4723 154.164 24.2941 154.851 23.9378C155.538 23.5687 156.073 23.1106 156.454 22.5634V19.4137H153.61C152.427 19.4137 151.529 19.6936 150.918 20.2536C150.308 20.8008 150.002 21.4626 150.002 22.2389C150.002 22.9388 150.225 23.486 150.67 23.8805C151.128 24.275 151.758 24.4723 152.56 24.4723V24.4723Z" fill="#2B0A46"/>
<path d="M166.057 18.0392C166.057 14.7814 166.763 12.1534 168.176 10.1554C169.601 8.15744 171.592 7.15845 174.15 7.15845C175.309 7.15845 176.327 7.41933 177.205 7.9411C178.083 8.45014 178.834 9.1819 179.457 10.1364L179.858 7.54023H184.707V27.5838C184.707 30.3072 183.848 32.477 182.13 34.0932C180.424 35.7221 178.076 36.5366 175.086 36.5366C174.042 36.5366 172.935 36.3903 171.764 36.0976C170.593 35.8176 169.512 35.4294 168.519 34.9331L169.55 31.0199C170.441 31.4016 171.332 31.7007 172.222 31.917C173.113 32.1461 174.055 32.2606 175.048 32.2606C176.409 32.2606 177.427 31.847 178.102 31.0199C178.776 30.1927 179.114 29.0409 179.114 27.5647V26.2094C178.503 26.9857 177.784 27.5774 176.957 27.9847C176.129 28.3919 175.181 28.5955 174.112 28.5955C171.58 28.5955 169.601 27.6665 168.176 25.8085C166.763 23.9378 166.057 21.4817 166.057 18.4401V18.0392ZM171.631 18.4401C171.631 20.2472 171.936 21.6725 172.547 22.7161C173.158 23.7469 174.15 24.2623 175.525 24.2623C176.377 24.2623 177.097 24.1096 177.682 23.8042C178.28 23.486 178.757 23.0279 179.114 22.4297V13.4579C178.757 12.8343 178.28 12.3507 177.682 12.0071C177.097 11.6635 176.39 11.4917 175.563 11.4917C174.201 11.4917 173.202 12.0962 172.566 13.3051C171.942 14.5141 171.631 16.0922 171.631 18.0392V18.4401Z" fill="#2B0A46"/>
<path d="M187.741 24.8541L190.414 24.2814V11.4726L187.455 10.8999V7.54023H195.606L195.854 10.499C196.542 9.44277 197.388 8.62194 198.393 8.03655C199.399 7.45115 200.525 7.15845 201.772 7.15845C203.859 7.15845 205.488 7.81384 206.659 9.12463C207.83 10.4354 208.415 12.4907 208.415 15.2904V24.2814L211.087 24.8541V28.1947H200.436V24.8541L202.822 24.2814V15.3095C202.822 13.9224 202.542 12.9425 201.982 12.3698C201.422 11.7844 200.576 11.4917 199.443 11.4917C198.705 11.4917 198.043 11.6444 197.458 11.9498C196.872 12.2425 196.382 12.6625 195.988 13.2097V24.2814L198.24 24.8541V28.1947H187.741V24.8541Z" fill="#2B0A46"/>
<path d="M212.672 17.6766C212.672 14.5968 213.531 12.0771 215.249 10.1173C216.98 8.14472 219.366 7.15845 222.408 7.15845C225.462 7.15845 227.848 8.13836 229.566 10.0982C231.297 12.058 232.162 14.5841 232.162 17.6766V18.0774C232.162 21.1826 231.297 23.7151 229.566 25.6749C227.848 27.622 225.475 28.5955 222.446 28.5955C219.379 28.5955 216.98 27.622 215.249 25.6749C213.531 23.7151 212.672 21.1826 212.672 18.0774V17.6766ZM218.246 18.0774C218.246 19.9609 218.577 21.4753 219.239 22.6206C219.901 23.7533 220.97 24.3196 222.446 24.3196C223.884 24.3196 224.934 23.7469 225.595 22.6015C226.27 21.4562 226.607 19.9482 226.607 18.0774V17.6766C226.607 15.844 226.27 14.3487 225.595 13.1906C224.921 12.0325 223.858 11.4535 222.408 11.4535C220.957 11.4535 219.901 12.0325 219.239 13.1906C218.577 14.3487 218.246 15.844 218.246 17.6766V18.0774Z" fill="#2B0A46"/>
<path d="M234.28 24.8541L236.953 24.2814V11.4726L233.994 10.8999V7.54023H242.145L242.393 10.499C243.081 9.44277 243.927 8.62194 244.932 8.03655C245.938 7.45115 247.064 7.15845 248.311 7.15845C250.398 7.15845 252.027 7.81384 253.198 9.12463C254.369 10.4354 254.954 12.4907 254.954 15.2904V24.2814L257.626 24.8541V28.1947H246.975V24.8541L249.361 24.2814V15.3095C249.361 13.9224 249.081 12.9425 248.521 12.3698C247.961 11.7844 247.115 11.4917 245.982 11.4917C245.244 11.4917 244.582 11.6444 243.997 11.9498C243.411 12.2425 242.921 12.6625 242.527 13.2097V24.2814L244.779 24.8541V28.1947H234.28V24.8541Z" fill="#2B0A46"/>
<path d="M276.258 14.6413H272.516L271.924 12.0643C271.543 11.7588 271.059 11.5043 270.474 11.3007C269.901 11.0971 269.265 10.9953 268.565 10.9953C267.585 10.9953 266.809 11.218 266.236 11.6634C265.663 12.0961 265.377 12.6433 265.377 13.3051C265.377 13.9286 265.651 14.4504 266.198 14.8704C266.745 15.2776 267.839 15.6403 269.481 15.9584C272.039 16.4675 273.935 17.2183 275.17 18.211C276.404 19.1909 277.021 20.5462 277.021 22.2769C277.021 24.1349 276.22 25.6557 274.616 26.8392C273.025 28.01 270.925 28.5954 268.317 28.5954C266.726 28.5954 265.262 28.3664 263.926 27.9082C262.603 27.4374 261.425 26.7692 260.395 25.9039L260.337 21.2652H264.232L264.995 23.9568C265.326 24.2368 265.778 24.4467 266.35 24.5867C266.923 24.714 267.521 24.7776 268.145 24.7776C269.277 24.7776 270.136 24.574 270.722 24.1668C271.32 23.7595 271.619 23.2059 271.619 22.506C271.619 21.8952 271.32 21.367 270.722 20.9216C270.124 20.4762 269.023 20.0817 267.419 19.7381C264.989 19.2418 263.15 18.51 261.903 17.5428C260.668 16.5629 260.051 15.2331 260.051 13.5532C260.051 11.8225 260.764 10.3335 262.189 9.08636C263.614 7.82647 265.644 7.19653 268.278 7.19653C269.882 7.19653 271.396 7.41288 272.822 7.84556C274.26 8.27826 275.386 8.83184 276.2 9.50632L276.258 14.6413Z" fill="#2B0A46"/>
<path d="M295.843 26.9633C295.506 27.4342 295.092 27.7905 294.602 28.0323C294.119 28.2741 293.556 28.395 292.913 28.395C291.653 28.395 290.667 27.9401 289.954 27.0301C289.248 26.1139 288.895 24.9112 288.895 23.4223V23.2219C288.895 21.5611 289.248 20.2217 289.954 19.2036C290.667 18.1855 291.66 17.6765 292.932 17.6765C293.543 17.6765 294.081 17.791 294.545 18.0201C295.016 18.2428 295.417 18.5673 295.748 18.9936V14.7845L294.192 14.5172V13.3051H295.748H297.628V26.7247L299.184 26.992V28.1946H295.996L295.843 26.9633ZM290.775 23.4223C290.775 24.4595 290.988 25.293 291.415 25.923C291.841 26.5529 292.499 26.8679 293.39 26.8679C293.95 26.8679 294.421 26.7406 294.803 26.4861C295.185 26.2316 295.5 25.8721 295.748 25.4076V20.6162C295.506 20.1835 295.191 19.8399 294.803 19.5854C294.415 19.3309 293.95 19.2036 293.409 19.2036C292.512 19.2036 291.847 19.5758 291.415 20.3203C290.988 21.0648 290.775 22.032 290.775 23.2219V23.4223Z" fill="#2B0A46"/>
<path d="M308.003 26.6675C307.679 27.2211 307.259 27.6474 306.743 27.9465C306.234 28.2456 305.646 28.3951 304.978 28.3951C303.858 28.3951 302.983 28.0356 302.353 27.3165C301.723 26.5975 301.408 25.4776 301.408 23.9569V19.3468L300.224 19.0796V17.8674H301.408H303.288V23.976C303.288 25.0768 303.45 25.834 303.775 26.2476C304.099 26.6612 304.605 26.868 305.293 26.868C305.961 26.868 306.511 26.7343 306.944 26.4671C307.383 26.1935 307.714 25.8085 307.936 25.3122V19.3468L306.552 19.0796V17.8674H307.936H309.817V26.7248L311 26.992V28.1946H308.127L308.003 26.6675Z" fill="#2B0A46"/>
</svg>
