<?xml version="1.0" standalone="no"?>
<!DOCTYPE svg PUBLIC "-//W3C//DTD SVG 20010904//EN"
 "http://www.w3.org/TR/2001/REC-SVG-20010904/DTD/svg10.dtd">
<svg version="1.0" xmlns="http://www.w3.org/2000/svg"
 width="900.000000pt" height="900.000000pt" viewBox="0 0 900.000000 900.000000"
 preserveAspectRatio="xMidYMid meet">
<metadata>
Created by potrace 1.14, written by Peter Selinger 2001-2017
</metadata>
<g transform="translate(0.000000,900.000000) scale(0.100000,-0.100000)"
fill="#000000" stroke="none">
<path d="M4610 7473 c-180 -27 -243 -39 -348 -64 -917 -223 -1659 -962 -1891
-1886 -219 -870 9 -1767 617 -2428 41 -44 78 -80 82 -80 5 0 130 187 278 415
l270 415 -31 45 c-70 103 -34 135 -297 -271 -129 -197 -237 -359 -241 -359
-14 0 -132 154 -210 274 -43 65 -108 178 -144 252 l-66 134 23 38 c13 21 149
235 303 475 214 334 282 434 291 424 6 -6 183 -307 394 -667 210 -360 385
-658 388 -662 4 -4 32 8 62 27 30 19 59 36 64 38 5 2 -61 122 -146 267 -85
146 -160 275 -167 288 -11 20 26 80 428 700 242 372 446 685 453 695 12 15 50
-41 339 -490 251 -390 2002 -3109 2245 -3485 l43 -68 61 38 c38 23 59 43 56
52 -2 8 -193 309 -425 669 -231 359 -421 656 -421 659 0 3 51 57 113 121 411
423 649 908 733 1496 26 180 23 524 -5 715 -67 446 -237 853 -506 1210 -105
141 -361 395 -505 502 -376 280 -775 443 -1233 503 -108 14 -532 20 -607 8z
m711 -177 c615 -117 1140 -442 1517 -938 188 -248 332 -542 412 -840 197 -742
41 -1537 -420 -2138 -106 -137 -292 -333 -304 -319 -4 5 -1394 2162 -1621
2516 -92 144 -171 261 -174 259 -3 -2 -226 -344 -496 -760 -416 -642 -492
-753 -502 -739 -7 9 -119 198 -249 420 -191 327 -239 402 -249 391 -7 -7 -160
-244 -341 -527 -376 -588 -331 -547 -378 -351 -114 473 -97 935 49 1376 184
553 550 1019 1038 1321 294 181 675 315 1006 353 42 5 189 7 326 5 219 -2 267
-6 386 -29z"/>
<path d="M4075 6590 l-120 -120 55 -55 54 -55 67 66 66 65 66 -71 67 -72 55
47 c30 26 55 51 55 55 0 8 -228 252 -240 258 -3 1 -59 -52 -125 -118z"/>
<path d="M5750 6430 c-84 -18 -183 -75 -247 -143 -90 -97 -133 -205 -133 -335
0 -55 -2 -60 -41 -97 -157 -152 -121 -403 72 -510 l54 -30 605 0 605 0 42 23
c60 32 110 78 141 131 25 42 27 54 27 156 0 101 -2 114 -27 155 -35 60 -82
103 -144 134 -42 21 -53 32 -58 58 -10 48 -64 126 -110 156 -69 47 -97 55
-182 56 l-81 1 -49 64 c-56 75 -143 138 -224 164 -66 22 -188 30 -250 17z
m271 -87 c84 -39 137 -87 189 -170 32 -50 45 -63 58 -57 32 13 130 16 165 5
62 -21 117 -68 143 -124 13 -29 24 -62 24 -75 0 -18 12 -28 58 -48 72 -31 118
-75 148 -139 49 -104 22 -233 -67 -308 -77 -67 -80 -67 -679 -67 -607 0 -608
0 -685 71 -62 58 -85 110 -85 195 1 99 37 169 113 219 26 17 27 21 27 104 0
49 7 110 15 139 24 79 91 169 163 219 87 59 137 73 252 70 82 -2 104 -7 161
-34z"/>
<path d="M3695 6230 l-120 -120 55 -55 54 -55 66 65 66 66 63 -71 c34 -38 68
-70 75 -70 6 0 34 22 60 49 l49 50 -91 98 c-49 54 -105 113 -124 130 l-34 33
-119 -120z"/>
<path d="M1939 3129 c-233 -364 -427 -667 -431 -674 -9 -14 112 -99 123 -87 4
4 189 293 413 641 l405 635 -31 55 c-17 31 -37 64 -43 74 -11 15 -69 -70 -436
-644z"/>
</g>
</svg>
