<svg xmlns="http://www.w3.org/2000/svg" xmlns:xlink="http://www.w3.org/1999/xlink" width="657" zoomAndPan="magnify" viewBox="0 0 492.75 225" height="300" preserveAspectRatio="xMidYMid meet" version="1.0"><defs><g/><clipPath id="3aade95ced"><path d="M 0 0.0585938 L 492.5 0.0585938 L 492.5 224.941406 L 0 224.941406 Z M 0 0.0585938 " clip-rule="nonzero"/></clipPath><clipPath id="a9bd713727"><path d="M 37.777344 37.863281 L 187.777344 37.863281 L 187.777344 187.113281 L 37.777344 187.113281 Z M 37.777344 37.863281 " clip-rule="nonzero"/></clipPath><clipPath id="d4b0257ba1"><path d="M 135.003906 64.980469 L 157.457031 64.980469 L 157.457031 87.4375 L 135.003906 87.4375 Z M 135.003906 64.980469 " clip-rule="nonzero"/></clipPath><clipPath id="c195b9152e"><path d="M 146.230469 64.980469 C 140.03125 64.980469 135.003906 70.007812 135.003906 76.207031 C 135.003906 82.410156 140.03125 87.4375 146.230469 87.4375 C 152.433594 87.4375 157.457031 82.410156 157.457031 76.207031 C 157.457031 70.007812 152.433594 64.980469 146.230469 64.980469 " clip-rule="nonzero"/></clipPath><clipPath id="119d20e374"><path d="M 131.660156 76.207031 L 147.441406 76.207031 L 147.441406 91.503906 L 131.660156 91.503906 Z M 131.660156 76.207031 " clip-rule="nonzero"/></clipPath><clipPath id="25b15450c9"><path d="M 139.519531 76.207031 C 135.179688 76.207031 131.660156 79.605469 131.660156 83.796875 C 131.660156 87.988281 135.179688 91.382812 139.519531 91.382812 C 143.859375 91.382812 147.378906 87.988281 147.378906 83.796875 C 147.378906 79.605469 143.859375 76.207031 139.519531 76.207031 " clip-rule="nonzero"/></clipPath><clipPath id="2f2e4c0aeb"><path d="M 156.515625 77.335938 L 171.78125 77.335938 L 171.78125 92.363281 L 156.515625 92.363281 Z M 156.515625 77.335938 " clip-rule="nonzero"/></clipPath><clipPath id="75f9ed59f3"><path d="M 164.148438 77.335938 C 159.933594 77.335938 156.515625 80.675781 156.515625 84.792969 C 156.515625 88.910156 159.933594 92.246094 164.148438 92.246094 C 168.363281 92.246094 171.78125 88.910156 171.78125 84.792969 C 171.78125 80.675781 168.363281 77.335938 164.148438 77.335938 " clip-rule="nonzero"/></clipPath><clipPath id="8b752afe80"><path d="M 151.597656 71.035156 L 166.492188 71.035156 L 166.492188 85.929688 L 151.597656 85.929688 Z M 151.597656 71.035156 " clip-rule="nonzero"/></clipPath><clipPath id="b45b9a0c0a"><path d="M 159.046875 71.035156 C 154.933594 71.035156 151.597656 74.371094 151.597656 78.484375 C 151.597656 82.59375 154.933594 85.929688 159.046875 85.929688 C 163.160156 85.929688 166.492188 82.59375 166.492188 78.484375 C 166.492188 74.371094 163.160156 71.035156 159.046875 71.035156 " clip-rule="nonzero"/></clipPath><clipPath id="9b819bc773"><path d="M 140.875 78.34375 L 163.636719 78.34375 L 163.636719 92.246094 L 140.875 92.246094 Z M 140.875 78.34375 " clip-rule="nonzero"/></clipPath><clipPath id="e84d8cad14"><path d="M 130.71875 64.105469 L 172.472656 64.105469 L 172.472656 92.605469 L 130.71875 92.605469 Z M 130.71875 64.105469 " clip-rule="nonzero"/></clipPath></defs><g clip-path="url(#3aade95ced)"><path fill="#ffffff" d="M 0 0.0585938 L 492.75 0.0585938 L 492.75 232.558594 L 0 232.558594 Z M 0 0.0585938 " fill-opacity="1" fill-rule="nonzero"/><path fill="#ffffff" d="M 0 0.0585938 L 492.75 0.0585938 L 492.75 225.058594 L 0 225.058594 Z M 0 0.0585938 " fill-opacity="1" fill-rule="nonzero"/></g><path fill="#ffc803" d="M 183.980469 102.957031 C 183.980469 120.371094 176.648438 136.792969 163.769531 148.414062 L 118.761719 78.890625 L 93.929688 116.929688 L 81.457031 95.726562 L 65.828125 120 C 65.011719 115.964844 64.585938 111.789062 64.585938 107.515625 C 64.585938 72.859375 92.707031 44.761719 127.394531 44.761719 C 137.921875 44.761719 147.847656 47.351562 156.566406 51.925781 C 173.078125 62.917969 183.980469 81.6875 183.980469 102.957031 " fill-opacity="1" fill-rule="nonzero"/><g clip-path="url(#a9bd713727)"><path fill="#37474f" d="M 101.953125 72.714844 L 95.851562 66.269531 L 89.824219 72.28125 L 92.503906 74.964844 L 95.773438 71.703125 L 99.195312 75.320312 Z M 108.722656 66.269531 L 105.300781 62.652344 L 102.035156 65.914062 L 99.351562 63.230469 L 105.378906 57.214844 L 111.480469 63.664062 Z M 59.421875 129.953125 L 61.566406 133.632812 L 40.96875 165.628906 L 37.777344 163.578125 Z M 93.929688 116.929688 L 81.457031 95.726562 L 64.414062 122.199219 C 62.386719 116.0625 61.332031 109.578125 61.332031 102.957031 C 61.332031 69.167969 88.839844 41.683594 122.65625 41.683594 C 156.46875 41.683594 183.980469 69.167969 183.980469 102.957031 C 183.980469 120.371094 176.648438 136.792969 163.769531 148.414062 L 118.761719 78.890625 Z M 187.773438 102.957031 C 187.773438 94.171875 186.050781 85.652344 182.65625 77.628906 C 179.375 69.882812 174.679688 62.921875 168.699219 56.949219 C 162.71875 50.972656 155.757812 46.285156 148.003906 43.003906 C 139.972656 39.613281 131.445312 37.890625 122.65625 37.890625 C 113.867188 37.890625 105.335938 39.613281 97.308594 43.003906 C 89.550781 46.285156 82.589844 50.972656 76.609375 56.949219 C 70.628906 62.921875 65.933594 69.882812 62.65625 77.628906 C 59.257812 85.652344 57.535156 94.171875 57.535156 102.957031 C 57.535156 119.742188 63.917969 135.675781 75.5 147.828125 L 77.15625 149.5625 L 90.820312 128.625 L 88.464844 125.292969 L 76.621094 143.4375 C 72.167969 138.390625 68.625 132.714844 66.074219 126.628906 L 81.308594 102.960938 L 101.171875 136.722656 L 104.441406 134.800781 L 96.074219 120.578125 L 118.75 85.851562 L 184.285156 187.085938 L 187.46875 185.027344 L 165.855469 151.636719 C 179.8125 139.273438 187.773438 121.652344 187.773438 102.957031 " fill-opacity="1" fill-rule="nonzero"/></g><g clip-path="url(#d4b0257ba1)"><g clip-path="url(#c195b9152e)"><path fill="#ffffff" d="M 135.003906 64.980469 L 157.457031 64.980469 L 157.457031 87.4375 L 135.003906 87.4375 Z M 135.003906 64.980469 " fill-opacity="1" fill-rule="nonzero"/></g></g><g clip-path="url(#119d20e374)"><g clip-path="url(#25b15450c9)"><path fill="#ffffff" d="M 131.660156 76.207031 L 147.441406 76.207031 L 147.441406 91.503906 L 131.660156 91.503906 Z M 131.660156 76.207031 " fill-opacity="1" fill-rule="nonzero"/></g></g><g clip-path="url(#2f2e4c0aeb)"><g clip-path="url(#75f9ed59f3)"><path fill="#ffffff" d="M 156.515625 77.335938 L 171.78125 77.335938 L 171.78125 92.363281 L 156.515625 92.363281 Z M 156.515625 77.335938 " fill-opacity="1" fill-rule="nonzero"/></g></g><g clip-path="url(#8b752afe80)"><g clip-path="url(#b45b9a0c0a)"><path fill="#ffffff" d="M 151.597656 71.035156 L 166.492188 71.035156 L 166.492188 85.929688 L 151.597656 85.929688 Z M 151.597656 71.035156 " fill-opacity="1" fill-rule="nonzero"/></g></g><g clip-path="url(#9b819bc773)"><path fill="#ffffff" d="M 140.875 78.34375 L 163.554688 78.34375 L 163.554688 92.070312 L 140.875 92.070312 Z M 140.875 78.34375 " fill-opacity="1" fill-rule="nonzero"/></g><g clip-path="url(#e84d8cad14)"><path fill="#37474f" d="M 131.574219 80.550781 C 132.214844 79.460938 133.109375 78.53125 134.171875 77.84375 C 134.140625 77.636719 134.113281 77.421875 134.09375 77.207031 C 134.058594 76.824219 134.039062 76.457031 134.039062 76.101562 C 134.039062 72.792969 135.390625 69.796875 137.566406 67.628906 C 139.746094 65.457031 142.757812 64.117188 146.082031 64.117188 C 148.519531 64.117188 150.792969 64.84375 152.695312 66.085938 C 154.476562 67.257812 155.929688 68.882812 156.878906 70.796875 C 157.132812 70.71875 157.394531 70.652344 157.660156 70.601562 C 158.128906 70.507812 158.613281 70.460938 159.105469 70.460938 C 161.070312 70.460938 162.855469 71.210938 164.195312 72.441406 C 165.429688 73.574219 166.285156 75.113281 166.539062 76.84375 C 168.179688 77.292969 169.617188 78.25 170.664062 79.535156 C 171.792969 80.914062 172.472656 82.671875 172.472656 84.578125 C 172.472656 86.785156 171.566406 88.792969 170.105469 90.246094 C 168.644531 91.699219 166.628906 92.601562 164.414062 92.601562 L 138.53125 92.601562 C 136.316406 92.601562 134.300781 91.699219 132.839844 90.246094 C 131.378906 88.792969 130.472656 86.785156 130.472656 84.578125 C 130.472656 83.117188 130.875 81.738281 131.574219 80.550781 Z M 133.796875 89.292969 C 135.011719 90.5 136.6875 91.253906 138.53125 91.253906 L 164.414062 91.253906 C 166.257812 91.253906 167.933594 90.5 169.148438 89.292969 C 170.363281 88.082031 171.117188 86.414062 171.117188 84.578125 C 171.117188 82.988281 170.554688 81.527344 169.617188 80.382812 C 168.664062 79.210938 167.316406 78.363281 165.785156 78.042969 C 165.484375 77.980469 165.273438 77.726562 165.25 77.4375 C 165.121094 75.855469 164.390625 74.445312 163.285156 73.429688 C 162.1875 72.425781 160.71875 71.808594 159.109375 71.808594 C 158.699219 71.808594 158.300781 71.847656 157.921875 71.921875 C 157.527344 71.996094 157.144531 72.113281 156.78125 72.261719 C 156.441406 72.398438 156.050781 72.238281 155.90625 71.902344 C 155.074219 69.976562 153.691406 68.34375 151.953125 67.207031 C 150.273438 66.105469 148.253906 65.464844 146.082031 65.464844 C 143.132812 65.464844 140.460938 66.652344 138.527344 68.578125 C 136.589844 70.503906 135.394531 73.164062 135.394531 76.101562 C 135.394531 76.453125 135.410156 76.78125 135.4375 77.085938 C 135.46875 77.410156 135.515625 77.738281 135.574219 78.0625 C 135.628906 78.351562 135.488281 78.628906 135.246094 78.765625 C 134.207031 79.351562 133.339844 80.207031 132.738281 81.230469 C 132.160156 82.210938 131.828125 83.355469 131.828125 84.578125 C 131.828125 86.414062 132.582031 88.082031 133.796875 89.292969 Z M 133.796875 89.292969 " fill-opacity="1" fill-rule="nonzero"/></g><g fill="#37474f" fill-opacity="1"><g transform="translate(200.788406, 115.241516)"><g><path d="M 1.933594 -16.921875 C 1.933594 -7.011719 9.667969 0.726562 19.824219 0.726562 C 29.007812 0.726562 33.359375 -4.59375 33.359375 -4.59375 L 27.558594 -13.777344 C 27.558594 -13.777344 24.65625 -11.121094 21.273438 -11.121094 C 17.886719 -11.121094 15.472656 -13.539062 15.472656 -16.921875 C 15.472656 -20.304688 17.886719 -22.722656 21.273438 -22.722656 C 24.65625 -22.722656 27.558594 -20.0625 27.558594 -20.0625 L 33.359375 -29.25 C 33.359375 -29.25 29.007812 -34.566406 19.824219 -34.566406 C 9.667969 -34.566406 1.933594 -26.832031 1.933594 -16.921875 Z M 1.933594 -16.921875 "/></g></g></g><g fill="#37474f" fill-opacity="1"><g transform="translate(235.109554, 115.241516)"><g><path d="M 15.472656 -33.84375 L 2.902344 -33.84375 L 2.902344 0 L 28.523438 0 L 28.523438 -11.121094 L 15.472656 -11.121094 Z M 15.472656 -33.84375 "/></g></g></g><g fill="#37474f" fill-opacity="1"><g transform="translate(264.596745, 115.241516)"><g><path d="M 26.109375 -16.921875 C 26.109375 -13.539062 23.691406 -11.121094 20.789062 -11.121094 C 17.886719 -11.121094 15.472656 -13.539062 15.472656 -16.921875 C 15.472656 -20.304688 17.886719 -22.722656 20.789062 -22.722656 C 23.691406 -22.722656 26.109375 -20.304688 26.109375 -16.921875 Z M 39.644531 -16.921875 C 39.644531 -26.832031 31.910156 -34.566406 20.789062 -34.566406 C 9.667969 -34.566406 1.933594 -26.832031 1.933594 -16.921875 C 1.933594 -7.011719 9.667969 0.726562 20.789062 0.726562 C 31.910156 0.726562 39.644531 -7.011719 39.644531 -16.921875 Z M 39.644531 -16.921875 "/></g></g></g><g fill="#37474f" fill-opacity="1"><g transform="translate(306.168857, 115.241516)"><g><path d="M 19.339844 -11.363281 C 17.164062 -11.363281 15.472656 -13.054688 15.472656 -15.710938 L 15.472656 -33.84375 L 2.902344 -33.84375 L 2.902344 -15.710938 C 2.902344 -6.042969 9.667969 0.726562 19.339844 0.726562 C 29.007812 0.726562 35.777344 -6.042969 35.777344 -15.710938 L 35.777344 -33.84375 L 23.207031 -33.84375 L 23.207031 -15.710938 C 23.207031 -13.054688 21.515625 -11.363281 19.339844 -11.363281 Z M 19.339844 -11.363281 "/></g></g></g><g fill="#37474f" fill-opacity="1"><g transform="translate(344.840591, 115.241516)"><g><path d="M 15.472656 -10.152344 L 15.472656 -23.691406 L 17.40625 -23.691406 C 21.03125 -23.691406 23.207031 -21.515625 23.207031 -16.921875 C 23.207031 -12.328125 21.03125 -10.152344 17.40625 -10.152344 Z M 36.742188 -16.921875 C 36.742188 -27.316406 30.265625 -34.328125 17.40625 -34.328125 C 9.667969 -34.328125 2.902344 -33.84375 2.902344 -33.84375 L 2.902344 0 C 2.902344 0 9.667969 0.484375 17.40625 0.484375 C 30.265625 0.484375 36.742188 -6.527344 36.742188 -16.921875 Z M 36.742188 -16.921875 "/></g></g></g><g fill="#37474f" fill-opacity="1"><g transform="translate(229.589849, 147.137625)"><g><path d="M 12.84375 0 L 10.6875 0 L 8.921875 -5.21875 L 3.90625 -5.21875 L 2.125 0 L 0.375 0 L 5.671875 -15.21875 L 7.5625 -15.21875 Z M 8.453125 -6.640625 L 6.4375 -12.671875 L 4.390625 -6.640625 Z M 8.453125 -6.640625 "/></g></g></g><g fill="#37474f" fill-opacity="1"><g transform="translate(259.50092, 147.137625)"><g><path d="M 10.140625 0 L 1.796875 0 L 1.796875 -13.84375 C 1.796875 -13.851562 1.769531 -13.960938 1.71875 -14.171875 C 1.675781 -14.378906 1.628906 -14.597656 1.578125 -14.828125 C 1.523438 -15.054688 1.5 -15.1875 1.5 -15.21875 L 3.75 -15.21875 L 3.75 -1.4375 L 10.140625 -1.4375 Z M 10.140625 0 "/></g></g></g><g fill="#37474f" fill-opacity="1"><g transform="translate(286.967065, 147.137625)"><g><path d="M 3.75 0 L 1.796875 0 L 1.796875 -13.84375 L 1.484375 -15.21875 L 6.046875 -15.21875 C 7.628906 -15.21875 8.875 -14.84375 9.78125 -14.09375 C 10.695312 -13.351562 11.15625 -12.195312 11.15625 -10.625 C 11.15625 -9.15625 10.675781 -8.019531 9.71875 -7.21875 C 8.757812 -6.414062 7.539062 -6.015625 6.0625 -6.015625 L 3.75 -6.015625 Z M 3.75 -7.4375 L 6.015625 -7.4375 C 6.984375 -7.4375 7.742188 -7.722656 8.296875 -8.296875 C 8.859375 -8.878906 9.140625 -9.65625 9.140625 -10.625 C 9.140625 -11.613281 8.867188 -12.382812 8.328125 -12.9375 C 7.796875 -13.5 7.035156 -13.78125 6.046875 -13.78125 L 3.75 -13.78125 Z M 3.75 -7.4375 "/></g></g></g><g fill="#37474f" fill-opacity="1"><g transform="translate(315.707915, 147.137625)"><g><path d="M 10.640625 0 L 1.796875 0 L 1.796875 -13.84375 C 1.796875 -13.851562 1.769531 -13.960938 1.71875 -14.171875 C 1.675781 -14.378906 1.628906 -14.597656 1.578125 -14.828125 C 1.523438 -15.054688 1.5 -15.1875 1.5 -15.21875 L 10.640625 -15.21875 L 10.640625 -13.78125 L 3.75 -13.78125 L 3.75 -8.53125 L 9.09375 -8.53125 L 9.09375 -7.109375 L 3.75 -7.109375 L 3.75 -1.4375 L 10.640625 -1.4375 Z M 10.640625 0 "/></g></g></g><g fill="#37474f" fill-opacity="1"><g transform="translate(343.905462, 147.137625)"><g><path d="M 0.671875 -0.875 L 1.421875 -2.59375 C 1.878906 -2.1875 2.4375 -1.859375 3.09375 -1.609375 C 3.75 -1.367188 4.375 -1.25 4.96875 -1.25 C 5.769531 -1.25 6.484375 -1.472656 7.109375 -1.921875 C 7.734375 -2.367188 8.046875 -3.019531 8.046875 -3.875 C 8.046875 -4.59375 7.804688 -5.203125 7.328125 -5.703125 C 6.847656 -6.203125 6.265625 -6.601562 5.578125 -6.90625 C 4.898438 -7.207031 4.222656 -7.519531 3.546875 -7.84375 C 2.867188 -8.175781 2.289062 -8.640625 1.8125 -9.234375 C 1.332031 -9.835938 1.09375 -10.578125 1.09375 -11.453125 C 1.09375 -12.691406 1.566406 -13.660156 2.515625 -14.359375 C 3.460938 -15.066406 4.578125 -15.421875 5.859375 -15.421875 C 7.203125 -15.421875 8.507812 -15.046875 9.78125 -14.296875 L 8.828125 -12.90625 C 7.847656 -13.59375 6.847656 -13.9375 5.828125 -13.9375 C 5.035156 -13.9375 4.394531 -13.742188 3.90625 -13.359375 C 3.414062 -12.972656 3.171875 -12.394531 3.171875 -11.625 C 3.171875 -11.1875 3.300781 -10.796875 3.5625 -10.453125 C 3.820312 -10.117188 4.148438 -9.832031 4.546875 -9.59375 C 4.953125 -9.351562 5.398438 -9.125 5.890625 -8.90625 C 6.390625 -8.6875 6.890625 -8.4375 7.390625 -8.15625 C 7.898438 -7.882812 8.351562 -7.582031 8.75 -7.25 C 9.15625 -6.914062 9.488281 -6.484375 9.75 -5.953125 C 10.007812 -5.421875 10.140625 -4.816406 10.140625 -4.140625 C 10.140625 -2.710938 9.632812 -1.625 8.625 -0.875 C 7.625 -0.125 6.382812 0.25 4.90625 0.25 C 3.539062 0.25 2.128906 -0.125 0.671875 -0.875 Z M 0.671875 -0.875 "/></g></g></g></svg>